<?xml version="1.0" standalone="no"?><!DOCTYPE svg PUBLIC "-//W3C//DTD SVG 1.1//EN" "http://www.w3.org/Graphics/SVG/1.1/DTD/svg11.dtd"><svg t="1728535372368" class="icon" viewBox="0 0 1024 1024" version="1.1" xmlns="http://www.w3.org/2000/svg" p-id="6124" width="16" height="16" xmlns:xlink="http://www.w3.org/1999/xlink"><path d="M439.808 241.472a14.528 14.528 0 0 0-12.352 6.912l-59.52 96.64a28.16 28.16 0 0 1-23.936 13.44H196.288a40.128 40.128 0 0 0-40.128 40.064v386.56c0 22.144 17.92 40.064 40.128 40.064h631.424c22.144 0 40.128-17.92 40.128-40.064v-386.56a40.128 40.128 0 0 0-40.128-40.128h-147.712a28.16 28.16 0 0 1-24-13.376l-59.52-96.64a14.528 14.528 0 0 0-12.288-6.912H439.808zM379.52 218.88c12.864-20.928 35.712-33.728 60.288-33.728h144.384c24.576 0 47.36 12.8 60.288 33.728l51.2 83.2h132.032c53.248 0 96.448 43.2 96.448 96.448v386.56c0 53.248-43.2 96.384-96.448 96.384H196.288a96.448 96.448 0 0 1-96.448-96.384v-386.56c0-53.248 43.2-96.448 96.448-96.448h131.968l51.264-83.2z" fill="#4691e7" p-id="6125"></path><path d="M608.64 484.736a121.6 121.6 0 0 0-130.432-27.2 25.6 25.6 0 0 1-18.688-47.68 172.8 172.8 0 0 1 185.344 283.072 25.6 25.6 0 0 1-36.16 0l-52.032-52.032a25.6 25.6 0 1 1 36.16-36.224l32 32a121.6 121.6 0 0 0-16.128-151.936zM416.64 665.152a121.6 121.6 0 0 0 130.432 27.2 25.6 25.6 0 1 1 18.688 47.68A172.8 172.8 0 0 1 380.352 456.96a25.6 25.6 0 0 1 36.224 0l52.032 52.032a25.6 25.6 0 0 1-36.16 36.224l-32-32a121.6 121.6 0 0 0 16.128 151.936z" fill="#4691e7" p-id="6126"></path></svg>